<svg xmlns="http://www.w3.org/2000/svg" xmlns:xlink="http://www.w3.org/1999/xlink" width="25" height="30" version="1.1" viewBox="0 0 25 30"><title>E719BCA2-6FA9-4B7F-95EA-3E6A5F74E5C9</title><desc>Created with sketchtool.</desc><g id="Change-Screens" fill="none" fill-rule="evenodd" stroke="none" stroke-width="1"><g id="Change-Details-Style-Helper" fill="#ACACAC" transform="translate(-327.000000, -518.000000)"><g id="Acceptance---Disabled" transform="translate(327.000000, 518.000000)"><g id="Page-1"><path id="Fill-1" d="M0,29.9882202 L24.9970703,29.9882202 L24.9970703,0 L0,0 L0,29.9882202 Z M1.20099851,28.6830539 L23.7950898,28.6830539 L23.7950898,1.30516633 L1.20099851,1.30516633 L1.20099851,28.6830539 Z"/><polygon id="Fill-2" points="11.025 21.356 19.863 21.356 19.863 19.848 11.025 19.848"/><polygon id="Fill-3" points="8.194 18.584 5.811 21.04 4.694 19.976 3.91 20.765 5.811 22.619 8.979 19.373"/><polygon id="Fill-4" points="11.025 15.185 19.863 15.185 19.863 13.678 11.025 13.678"/><polygon id="Fill-5" points="8.194 12.414 5.811 14.87 4.694 13.806 3.91 14.595 5.811 16.449 8.979 13.203"/><polygon id="Fill-6" points="11.025 9.015 19.863 9.015 19.863 7.507 11.025 7.507"/><polygon id="Fill-7" points="8.194 6.243 5.811 8.7 4.694 7.635 3.91 8.424 5.811 10.278 8.979 7.032"/></g></g></g></g></svg>