<svg xmlns="http://www.w3.org/2000/svg" xmlns:xlink="http://www.w3.org/1999/xlink" width="11" height="3" version="1.1" viewBox="0 0 11 3"><title>F0BF5847-A88B-41BA-981F-840B91DDDE9E</title><desc>Created with sketchtool.</desc><g id="Change-Screens" fill="none" fill-rule="evenodd" stroke="none" stroke-width="1"><g id="Change-Details-Style-Helper" fill="#3F5364" transform="translate(-322.000000, -472.000000)"><path id="ï¨" d="M333,472.75 L333,474.25 C333,474.458334 332.927084,474.635416 332.78125,474.78125 C332.635416,474.927084 332.458334,475 332.25,475 L322.75,475 C322.541666,475 322.364584,474.927084 322.21875,474.78125 C322.072916,474.635416 322,474.458334 322,474.25 L322,472.75 C322,472.541666 322.072916,472.364584 322.21875,472.21875 C322.364584,472.072916 322.541666,472 322.75,472 L332.25,472 C332.458334,472 332.635416,472.072916 332.78125,472.21875 C332.927084,472.364584 333,472.541666 333,472.75 L333,472.75 Z"/></g></g></svg>