<svg xmlns="http://www.w3.org/2000/svg" xmlns:xlink="http://www.w3.org/1999/xlink" width="33" height="32" version="1.1" viewBox="0 0 33 32"><title>Clacker</title><desc>Created with Sketch.</desc><g id="Change" fill="none" fill-rule="evenodd" stroke="none" stroke-width="1"><g id="Change-in-Verify(status)" transform="translate(-592.000000, -436.000000)"><g id="Group-2" transform="translate(60.000000, 423.000000)"><g id="Group" transform="translate(522.000000, 0.000000)"><g id="Clacker" transform="translate(10.000000, 13.000000)"><rect id="Rectangle-322" width="30.171" height="4.833" x="1.886" y="9.768" fill="#456a8d"/><rect id="Rectangle-324" width="30.171" height="18.366" x="1.886" y="13.634" fill="#FFF" stroke="#456a8d" stroke-width="2"/><path id="Rectangle-325" fill="#FFF" stroke="#456a8d" d="M28.2857143,10.7344992 L30.1714286,10.7344992 L28.2857143,13.6343402 L26.4,13.6343402 L28.2857143,10.7344992 Z"/><path id="Rectangle-325" fill="#FFF" stroke="#456a8d" d="M22.6285714,10.7344992 L24.5142857,10.7344992 L22.6285714,13.6343402 L20.7428571,13.6343402 L22.6285714,10.7344992 Z"/><path id="Rectangle-326" fill="#FFF" stroke="#456a8d" d="M16.9714286,10.7344992 L18.8571429,10.7344992 L16.9714286,13.6343402 L15.0857143,13.6343402 L16.9714286,10.7344992 Z"/><path id="Rectangle-327" fill="#FFF" stroke="#456a8d" d="M11.3142857,10.7344992 L13.2,10.7344992 L11.3142857,13.6343402 L9.42857143,13.6343402 L11.3142857,10.7344992 Z"/><path id="Rectangle-328" fill="#FFF" stroke="#456a8d" d="M5.65714286,10.7344992 L7.54285714,10.7344992 L5.65714286,13.6343402 L3.77142857,13.6343402 L5.65714286,10.7344992 Z"/><g id="Group" transform="translate(16.500000, 5.418124) rotate(-11.000000) translate(-16.500000, -5.418124) translate(0.942857, 3.001590)"><path id="Rectangle-322" fill="#456a8d" d="M2.14659579e-09,0.0142562421 L30.1714286,0.0142562421 L30.1714286,4.81180586 L0.221881801,4.81180586 L2.14659579e-09,0.0142562421 Z"/><path id="Rectangle-325" fill="#FFF" stroke="#456a8d" d="M26.4,0.966613672 L28.2857143,0.966613672 L26.4,3.86645469 L24.5142857,3.86645469 L26.4,0.966613672 Z" transform="translate(26.400000, 2.416534) scale(1, -1) translate(-26.400000, -2.416534)"/><path id="Rectangle-325" fill="#FFF" stroke="#456a8d" d="M20.7428571,0.963110499 L22.6285714,0.963110499 L20.7428571,3.86295152 L18.8571429,3.86295152 L20.7428571,0.963110499 Z" transform="translate(20.742857, 2.413031) scale(1, -1) translate(-20.742857, -2.413031)"/><path id="Rectangle-326" fill="#FFF" stroke="#456a8d" d="M15.0857143,0.963110499 L16.9714286,0.963110499 L15.0857143,3.86295152 L13.2,3.86295152 L15.0857143,0.963110499 Z" transform="translate(15.085714, 2.413031) scale(1, -1) translate(-15.085714, -2.413031)"/><path id="Rectangle-327" fill="#FFF" stroke="#456a8d" d="M9.42857143,0.963110499 L11.3142857,0.963110499 L9.42857143,3.86295152 L7.54285714,3.86295152 L9.42857143,0.963110499 Z" transform="translate(9.428571, 2.413031) scale(1, -1) translate(-9.428571, -2.413031)"/><path id="Rectangle-328" fill="#FFF" stroke="#456a8d" d="M3.77142857,0.963110499 L5.65714286,0.963110499 L3.77142857,3.86295152 L1.88571429,3.86295152 L3.77142857,0.963110499 Z" transform="translate(3.771429, 2.413031) scale(1, -1) translate(-3.771429, -2.413031)"/></g><rect id="Rectangle-335" width="16.029" height="1.933" x="4.714" y="17.501" fill="#456a8d"/><rect id="Rectangle-335" width="20.743" height="1.933" x="4.714" y="21.367" fill="#456a8d"/><rect id="Rectangle-335" width="6.6" height="1.933" x="4.714" y="25.234" fill="#456a8d"/><rect id="Rectangle-335" width="6.6" height="1.933" x="13.2" y="25.234" fill="#456a8d"/></g></g></g></g></g></svg>