<svg xmlns="http://www.w3.org/2000/svg" xmlns:xlink="http://www.w3.org/1999/xlink" width="33" height="42" version="1.1" viewBox="0 0 33 42"><title>Group</title><desc>Created with Sketch.</desc><g id="Change" fill="none" fill-rule="evenodd" stroke="none" stroke-width="1"><g id="Change-in-Verify(status)" transform="translate(-321.000000, -431.000000)"><g id="Group-2" transform="translate(60.000000, 423.000000)"><g id="Group"><g transform="translate(253.000000, 0.000000) translate(8.000000, 8.000000)"><rect id="Rectangle-330" width="33" height="42" x="0" y="0" fill="#FFF" stroke="#4A4A4A" stroke-width="2"/><rect id="Rectangle-331" width="5.5" height="5.6" x="4.125" y="5.6" fill="#4A4A4A"/><rect id="Rectangle-331" width="5.5" height="5.6" x="4.125" y="18.2" fill="#4A4A4A"/><rect id="Rectangle-331" width="5.5" height="5.6" x="4.125" y="30.1" fill="#4A4A4A"/><path id="Path-3" fill="#FFF" stroke="#4A4A4A" d="M5.70625636,6.51044467 L3.90692016,8.34239131 L6.76097933,11.2587138 L11.0109439,6.93158183 L9.20152454,5.09953042 L6.76097933,7.58434442 L5.70625636,6.51044467 Z"/><path id="Path-3" fill="#FFF" stroke="#4A4A4A" d="M5.70625636,19.1104447 L3.90692016,20.9423913 L6.76097933,23.8587138 L11.0109439,19.5315818 L9.20152454,17.6995304 L6.76097933,20.1843444 L5.70625636,19.1104447 Z"/><path id="Path-3" fill="#FFF" stroke="#4A4A4A" d="M5.70625636,31.0104447 L3.90692016,32.8423913 L6.76097933,35.7587138 L11.0109439,31.4315818 L9.20152454,29.5995304 L6.76097933,32.0843444 L5.70625636,31.0104447 Z"/><rect id="Rectangle-332" width="12.375" height="2.1" x="14.438" y="7" fill="#4A4A4A"/><rect id="Rectangle-332" width="6.875" height="2.1" x="14.438" y="19.6" fill="#4A4A4A"/><rect id="Rectangle-332" width="9.625" height="2.1" x="14.438" y="31.5" fill="#4A4A4A"/></g></g></g></g></g></svg>