<svg xmlns="http://www.w3.org/2000/svg" xmlns:xlink="http://www.w3.org/1999/xlink" width="642" height="242" version="1.1" viewBox="0 0 642 242"><title>61F8CE14-14C9-42BA-B06A-DAE5E1F25D4D</title><desc>Created with sketchtool.</desc><defs><linearGradient id="linearGradient-1" x1="43.474%" x2="50%" y1="4.403%" y2="4.403%"><stop offset="0%" stop-color="#EBEBEB"/><stop offset="100%" stop-color="#D7D7D7"/></linearGradient><linearGradient id="linearGradient-2" x1="76.252%" x2="36.91%" y1="13.549%" y2="7.92%"><stop offset="0%" stop-color="#ADDBAD"/><stop offset="100%" stop-color="#7DC67D"/></linearGradient><linearGradient id="linearGradient-3" x1="0%" x2="76.839%" y1="0%" y2="16.117%"><stop offset="0%" stop-color="#ECA9A7"/><stop offset="100%" stop-color="#E17572"/></linearGradient><rect id="path-4" width="22.756" height="22.756" x="0" y="0" rx="4"/><mask id="mask-5" width="22.756" height="22.756" x="0" y="0" fill="#fff" maskContentUnits="userSpaceOnUse" maskUnits="objectBoundingBox"><use xlink:href="#path-4"/></mask></defs><g id="Exploration" fill="none" fill-rule="evenodd" stroke="none" stroke-width="1"><g id="WELCOME_StaticWidgets" transform="translate(-47.000000, -43.000000)"><g id="inspec-bg-copy" transform="translate(47.000000, 43.000000)"><rect id="Rectangle-1028" width="642" height="242" x="0" y="0" fill="#FFF"/><g id="Charts" transform="translate(25.000000, 26.000000)"><g id="Compliance-Pie" transform="translate(0.455437, 0.327065)"><path id="Oval-80-Copy-12" fill="url(#linearGradient-1)" d="M93.0907604,186.181521 C144.503368,186.181521 186.181521,144.503368 186.181521,93.0907604 C186.181521,41.6781531 144.503368,0 93.0907604,0 C41.6781531,0 0,41.6781531 0,93.0907604 C0,144.503368 41.6781531,186.181521 93.0907604,186.181521 Z"/><path id="Combined-Shape" fill="url(#linearGradient-2)" d="M137.348162,11.1730866 C166.429941,26.9181622 186.181521,57.697847 186.181521,93.0907604 C186.181521,144.503368 144.503368,186.181521 93.0907604,186.181521 C41.6781531,186.181521 0,144.503368 0,93.0907604 C0,44.6729695 36.9640159,4.88858715 84.2117158,0.417945078 L93.0723578,93.6251725 L137.348162,11.1730866 Z"/><path id="Combined-Shape" fill="url(#linearGradient-3)" d="M137.155333,11.0689814 C124.085561,4.03274549 109.141297,0.029157699 93.2644812,0.000158639669 L93.2644812,93.1820374 L137.155333,11.0689814 Z"/><ellipse id="Center" cx="93.091" cy="93.091" fill="#FFF" rx="77.576" ry="77.576"/></g><text id="Compliance-Status" fill="#677C8B" font-family="FontAwesome" font-size="24" font-weight="normal" line-spacing="25"><tspan x="82.063" y="85.456"></tspan> <tspan x="51.825" y="111.456" font-family="Montserrat-Regular, Montserrat" font-size="14">Compliance</tspan> <tspan x="71.754" y="129.456" font-family="Montserrat-Regular, Montserrat" font-size="14">Status</tspan></text><g id="Group-2" fill="#7DC67D" transform="translate(467.844644, 4.464432)"><rect id="Rectangle-4" width="5.346" height="18.179" x="70.565" y="11.817"/><rect id="Rectangle-4-Copy-6" width="5.346" height="18.179" x="32.075" y="11.817"/><rect id="Rectangle-4-Copy-3" width="5.346" height="18.179" x="51.32" y="11.817"/><rect id="Rectangle-4-Copy-7" width="5.346" height="18.179" x="12.83" y="11.817"/><rect id="Rectangle-4-Copy" width="5.346" height="26.36" x="64.15" y="3.636"/><rect id="Rectangle-4-Copy-8" width="5.346" height="23.633" x="25.66" y="6.363"/><rect id="Rectangle-4-Copy-4" width="5.346" height="29.996" x="44.905" y="0"/><rect id="Rectangle-4-Copy-9" width="5.346" height="9.09" x="6.415" y="20.906"/><rect id="Rectangle-4-Copy-2" width="5.346" height="23.633" x="57.735" y="6.363"/><rect id="Rectangle-4-Copy-10" width="5.346" height="23.633" x="19.245" y="6.363"/><rect id="Rectangle-4-Copy-5" width="5.346" height="26.36" x="38.49" y="3.636"/><rect id="Rectangle-4-Copy-11" width="5.346" height="9.09" x="0" y="20.906"/></g><g id="Group-Copy-3" fill="#E27C79" transform="translate(248.525756, 24.116926)"><rect id="Rectangle-4" width="5.32" height="5.98" x="70.218" y="3.887"/><rect id="Rectangle-4-Copy-6" width="5.32" height="5.98" x="31.917" y="3.887"/><rect id="Rectangle-4-Copy-3" width="5.32" height="5.98" x="51.068" y="3.887"/><rect id="Rectangle-4-Copy-7" width="5.32" height="5.98" x="12.767" y="3.887"/><rect id="Rectangle-4-Copy" width="5.32" height="8.672" x="63.835" y="1.196"/><rect id="Rectangle-4-Copy-8" width="5.32" height="7.774" x="25.534" y="2.093"/><rect id="Rectangle-4-Copy-4" width="5.32" height="9.868" x="44.684" y="0"/><rect id="Rectangle-4-Copy-9" width="5.32" height="2.99" x="6.383" y="6.877"/><rect id="Rectangle-4-Copy-2" width="5.32" height="7.774" x="57.451" y="2.093"/><rect id="Rectangle-4-Copy-10" width="5.32" height="7.774" x="19.15" y="2.093"/><rect id="Rectangle-4-Copy-5" width="5.32" height="8.672" x="38.301" y="1.196"/><rect id="Rectangle-4-Copy-11" width="5.32" height="2.99" x="0" y="6.877"/></g><text id="Compliance-Status-Copy-7" font-family="HelveticaNeue-Light, Helvetica Neue" font-size="11" font-weight="300" line-spacing="25"><tspan x="249" y="54.912" fill="#677C8B">UNCOMPLIANT NODES</tspan> <tspan x="359.625" y="49" fill="#677C8B" font-size="24"> </tspan> <tspan x="253.718" y="79.912" fill="#E27C79" font-family="FontAwesome" font-size="22" font-weight="normal"> </tspan> <tspan x="268.558" y="76.392" fill="#E27C79" font-family="HelveticaNeue-Medium, Helvetica Neue" font-size="22" font-weight="400">90</tspan> <tspan x="303.274" y="79.912" fill="#677C8B" font-family="Montserrat-Regular, Montserrat" font-size="22" font-weight="normal"> </tspan> <tspan x="300.31" y="79.912" fill="#4A90E2" font-family="HelveticaNeue, Helvetica Neue" font-size="12" font-weight="normal">view</tspan></text><text id="Compliance-Status-Copy-8" font-family="HelveticaNeue-Light, Helvetica Neue" font-size="11" font-weight="300" line-spacing="25"><tspan x="468.012" y="52" fill="#677C8B">COMPLIANT NODES </tspan> <tspan x="468" y="77" fill="#7DC67D" font-family="FontAwesome" font-size="22" font-weight="normal"> </tspan> <tspan x="479.697" y="71.48" fill="#7DC67D" font-family="HelveticaNeue-Medium, Helvetica Neue" font-size="22" font-weight="400">1150</tspan> <tspan x="538.877" y="76.496" fill="#677C8B" font-family="Montserrat-Regular, Montserrat" font-size="22" font-weight="normal"> </tspan> <tspan x="535.913" y="77" fill="#4A90E2" font-family="HelveticaNeue, Helvetica Neue" font-size="12" font-weight="normal">view</tspan></text><text id="WORKFLOW-CHANGES-*" font-family="HelveticaNeue, Helvetica Neue" font-size="11" font-weight="normal" line-spacing="31"><tspan x="276.188" y="136.517" fill="#6E8492">WORKFLOW CHANGES </tspan> <tspan x="399.85" y="136.517" fill="#6E8492" font-size="16">*</tspan> <tspan x="249.56" y="164.361" fill="#9012FE" font-size="28"> </tspan> <tspan x="280.696" y="164.361" fill="#EB7DD6" font-size="28">7</tspan> <tspan x="313.382" y="167.517" fill="#6E8492" font-size="10"> </tspan> <tspan x="319.82" y="167.517" fill="#4A90E2" font-size="12">view trend </tspan> <tspan x="390.109" y="167.517" fill="#4A90E2" font-family="FontAwesome" font-size="12"></tspan></text><g id="Line-1-Copy-2" transform="translate(249.560098, 164.787408)"><use id="Rectangle-296" fill="#EB7DD6" stroke="#EB7DD6" stroke-width="2" mask="url(#mask-5)" xlink:href="#path-4"/><text id="P" fill="#FFF" font-family="HelveticaNeue-Bold, Helvetica Neue" font-size="14" font-weight="bold"><tspan x="7.125" y="15.317">P</tspan></text></g></g><rect id="Rectangle-1028" width="642" height="242" x="0" y="0" fill="#4196B5" opacity=".93"/></g></g></g></svg>