<svg xmlns="http://www.w3.org/2000/svg" xmlns:svg="http://www.w3.org/2000/svg" xmlns:xlink="http://www.w3.org/1999/xlink" id="svg8159" width="1066.667" height="309.556" version="1.1" viewBox="0 0 282.222 81.903"><defs id="defs8153"><linearGradient id="linearGradient8271"><stop style="stop-color:#79787d;stop-opacity:1" id="stop8267" offset="0"/><stop id="stop8275" offset=".5" style="stop-color:#e6e6e6;stop-opacity:1"/><stop style="stop-color:#6b6d6a;stop-opacity:1" id="stop8269" offset="1"/></linearGradient><linearGradient id="linearGradient8251"><stop style="stop-color:#1c3973;stop-opacity:1" id="stop8247" offset="0"/><stop id="stop8255" offset=".371" style="stop-color:#1b6bab;stop-opacity:1"/><stop style="stop-color:#5d93bc;stop-opacity:1" id="stop8257" offset=".542"/><stop style="stop-color:#1070a3;stop-opacity:1" id="stop8249" offset="1"/></linearGradient><style id="style3189" type="text/css"/><style id="style3189-1" type="text/css"/><linearGradient id="linearGradient8253" x1="1485.501" x2="1678.038" y1="7.889" y2="304.686" gradientTransform="matrix(0.26458333,0,0,0.26458333,-324.00867,23.06817)" gradientUnits="userSpaceOnUse" xlink:href="#linearGradient8251"/><linearGradient id="linearGradient8273" x1="1567.716" x2="1640.604" y1="556.889" y2="813.887" gradientTransform="matrix(0.26458333,0,0,0.26458333,-324.00867,23.06817)" gradientUnits="userSpaceOnUse" xlink:href="#linearGradient8271"/></defs><metadata id="metadata8156"/><path id="path7291" d="m 65.186219,12.347463 -15.530911,31.279296 27.343311,31.69125 -50.749154,5.76134 78.748395,0.82392 -39.811641,-69.555806 z" style="fill:#035bda;fill-opacity:1;fill-rule:evenodd;stroke:none;stroke-width:1px;stroke-linecap:butt;stroke-linejoin:miter;stroke-opacity:1"/><path id="path7293" d="M 62.12364,0 26.46842,29.839184 0,74.494959 22.530954,72.230939 62.12364,0 Z" style="fill:#035bda;fill-opacity:1;fill-rule:evenodd;stroke:none;stroke-width:1px;stroke-linecap:butt;stroke-linejoin:miter;stroke-opacity:1"/><path id="text7295" d="m 134.76278,31.581229 -17.05424,41.81869 5.79859,0 4.43433,-11.72335 18.85174,0 4.71317,11.72335 5.76678,0 -17.116,-41.81869 -5.39437,0 z m 2.54233,5.07384 0.12351,0 c 0.22738,1.283142 0.45475,2.216869 0.68214,2.800119 l 6.97665,17.818302 -15.41021,0 6.9149,-17.818302 c 0.26872,-0.680455 0.5063,-1.614183 0.71301,-2.800119 z m 131.86302,6.182973 c -4.15487,0 -7.63781,1.467406 -10.44907,4.40308 -2.79059,2.916235 -4.18543,6.698306 -4.18543,11.344839 0,4.918719 1.28163,8.738342 3.84483,11.460163 2.56321,2.702375 6.08698,4.053615 10.57259,4.053615 4.58896,0 8.27886,-0.95207 11.06944,-2.857342 l 0,-4.49111 c -2.99729,2.216338 -6.28349,3.323885 -9.85957,3.323885 -3.18333,0 -5.68441,-0.904031 -7.50346,-2.712095 -1.81905,-1.808069 -2.77029,-4.374285 -2.85298,-7.698792 l 22.41774,0 0,-2.507872 c 0,-4.491001 -1.13686,-7.999671 -3.41066,-10.527073 -2.27381,-2.527404 -5.48856,-3.791298 -9.64343,-3.791298 z m -22.71809,0.175172 c -1.83972,0 -3.5037,0.593079 -4.99202,1.779015 -1.48831,1.166494 -2.5936,2.798979 -3.31709,4.898668 l -0.12445,0 0,-6.153048 -5.08464,0 0,29.86207 5.08464,0 0,-15.222397 c 0,-3.324512 0.72388,-5.949247 2.17085,-7.873963 1.46764,-1.924716 3.28661,-2.887266 5.45706,-2.887266 1.67435,0 2.95598,0.320557 3.84483,0.96213 l 0,-4.957646 c -0.70281,-0.272184 -1.71624,-0.407563 -3.03918,-0.407563 z m -84.00802,0.524635 0,4.082668 17.02243,0 -18.78999,24.292646 0,1.486756 26.07636,0 0,-4.082658 -18.60378,0 18.78998,-24.408838 0,-1.370574 -24.495,0 z m 32.1435,0 0,17.847351 c 0,8.476524 3.78364,12.714539 11.34922,12.714539 4.42359,0 7.68937,-1.80807 9.79782,-5.424195 l 0.12351,0 0,4.724375 5.08558,0 0,-29.86207 -5.08558,0 0,17.205638 c 0,2.780144 -0.80554,5.035408 -2.41787,6.76571 -1.59167,1.710858 -3.6278,2.565975 -6.10832,2.565975 -5.1264,0 -7.68966,-3.148812 -7.68966,-9.447879 l 0,-17.089444 -5.0547,0 z m 74.48998,3.32476 c 2.48051,0 4.41363,0.767764 5.79859,2.303648 1.40563,1.535888 2.11836,3.683711 2.13903,6.444412 l -17.14688,0 c 0.39275,-2.605171 1.42659,-4.714564 3.10094,-6.328214 1.67435,-1.613651 3.71048,-2.419846 6.10832,-2.419846 z" style="font-style:normal;font-weight:400;font-size:37.40345001px;line-height:125%;font-family:sans-serif;letter-spacing:.99887848px;word-spacing:0;fill:#035bda;fill-opacity:1;stroke:none;stroke-width:1px;stroke-linecap:butt;stroke-linejoin:miter;stroke-opacity:1"/></svg>