<svg xmlns="http://www.w3.org/2000/svg" xmlns:xlink="http://www.w3.org/1999/xlink" id="Layer_1" x="0" y="0" version="1.1" viewBox="0 0 90 90" xml:space="preserve" style="enable-background:new 0 0 90 90"><style type="text/css">.st0{fill:#b4b8bb}.st1{fill:#f78d1f}.st2{fill:#fff}</style><title>Group 12</title><desc>Created with Sketch.</desc><g id="install-ilustration"><g id="Group-11" transform="translate(157.000000, 53.000000)"><g id="Group-8" transform="translate(198.000000, 0.000000)"><g id="Group-14"><g id="XMLID_1_"><g><polygon points="-277.6 -39.6 -342.4 -39.6 -342.4 -44.1 -312.3 -44.1 -312.3 -41.9 -307.7 -41.9 -307.7 -44.1 -277.6 -44.1" class="st0"/><polygon points="-283.7 -38.8 -283.7 37 -293.8 37 -293.8 36.2 -289.2 36.2 -289.2 -35.2 -289.2 -38.8" class="st1"/><rect width="4.6" height="2.2" x="-312.3" y="-50.8" class="st0"/><rect width="4.6" height="71.3" x="-312.3" y="-35.2" class="st0"/><path d="M-330.3-34.8v71.4h4.6v-71.4H-330.3z M-334.3,37v-75.8h16.2V37H-334.3z" class="st1"/><polygon points="-319.3 -53 -300.7 -53 -300.7 -48.5 -307.7 -48.5 -307.7 -50.8 -312.3 -50.8 -312.3 -48.5 -319.3 -48.5" class="st0"/><rect width="4.6" height="4.5" x="-312.3" y="-48.5" class="st1"/><rect width="4.6" height="2.2" x="-312.3" y="-44.1" class="st0"/><rect width="4.6" height="71.3" x="-293.8" y="-35.2" class="st2"/><rect width="4.6" height="71.4" x="-330.3" y="-34.8" class="st2"/><polygon points="-299.9 -38.8 -289.2 -38.8 -289.2 -35.2 -293.8 -35.2 -293.8 36.2 -293.8 37 -299.9 37" class="st1"/></g></g></g></g></g></g></svg>